<?xml version="1.0" standalone="no"?>
<!DOCTYPE svg PUBLIC "-//W3C//DTD SVG 1.1//EN" "http://www.w3.org/Graphics/SVG/1.1/DTD/svg11.dtd" >
<svg xmlns="http://www.w3.org/2000/svg" xmlns:xlink="http://www.w3.org/1999/xlink" version="1.1">
<metadata></metadata>
<defs>
<font id="best_friends_fontregular" horiz-adv-x="1228" >
<font-face units-per-em="2048" ascent="1638" descent="-410" />
<missing-glyph horiz-adv-x="348" />
<glyph horiz-adv-x="0" />
<glyph horiz-adv-x="682" />
<glyph unicode=" "  horiz-adv-x="348" />
<glyph unicode="&#x09;" horiz-adv-x="348" />
<glyph unicode="&#xa0;" horiz-adv-x="348" />
<glyph unicode="!" horiz-adv-x="575" d="M21 82q7 -71 71 -81q12 -2 25 -1q76 4 132 85q51 74 45 146t-72 81q-11 2 -25 1q-78 -4 -134 -86q-49 -74 -42 -145zM63 502l261 -25l231 1194l-319 -24z" />
<glyph unicode="&#x22;" horiz-adv-x="585" d="M20 1229l86 340l207 12l-159 -336zM272 1229l134 16l159 336l-205 -12z" />
<glyph unicode="#" horiz-adv-x="1288" d="M-20 356v226l262 18l41 277l-267 -17l2 225l297 21l66 440h231l-63 -424l276 19l62 405h229l-59 -389l252 17l-19 -228l-266 -18l-41 -277l287 21l-17 -230l-305 -20l-67 -442l-224 20l60 408l-279 -19l-61 -409l-225 20l55 373zM473 616l279 21l41 274l-279 -18z" />
<glyph unicode="$" horiz-adv-x="888" d="M20 111l142 358q7 -7 18 -17.5t43.5 -33.5t62 -35t64.5 -9.5t60 29.5q21 24 23.5 49.5t-9.5 48.5t-35.5 52.5t-48.5 56.5t-54.5 66t-49.5 76q-66 128 -54 250t87 223t190 151l18 150l203 10l-35 -123q112 0 223 -51l-127 -387q-5 21 -36.5 47t-72.5 44t-85.5 17 t-69.5 -30q-13 -15 -14 -34.5t7 -40.5t24 -46.5t35.5 -50t43 -53t45.5 -54t43.5 -55t36.5 -53.5q54 -93 57 -196t-37.5 -188.5t-116 -152.5t-171.5 -94l-16 -146l-205 -12l43 146q-116 12 -232 88z" />
<glyph unicode="%" />
<glyph unicode="&#x26;" horiz-adv-x="999" d="M46.5 419.5q35.5 207.5 158.5 344.5q-42 71 -48.5 161.5t20 178.5t74 168.5t117.5 141t148 85.5q70 21 124 11t84 -45t48.5 -87.5t18.5 -115.5t-7 -129l-252 -60q10 41 5 75t-27 40q-46 12 -84 -60q-36 -69 -33 -136q3 -54 37 -56q6 -2 19 2l305 51l204 45l-8 -233 l-221 -41q21 -60 21 -136.5t-17 -154t-51 -155t-78.5 -141.5t-102 -111.5t-118.5 -65.5q-195 -59 -283.5 78.5t-53 345zM283 365q-3 -89 45 -96q2 -1 4 -1q32 -2 62.5 29t49 78.5t28 96.5t0.5 87.5t-36 46.5q-55 16 -104 -69q-46 -81 -49 -172z" />
<glyph unicode="'" horiz-adv-x="333" d="M20 1229l86 340l207 12l-159 -336z" />
<glyph unicode="(" horiz-adv-x="610" d="M21.5 607.5q-9.5 -165.5 30 -340.5t134.5 -328l242 59q-72 147 -101 307.5t-20.5 310.5t49 311t98 302t136.5 291l-228 71q-93 -156 -162.5 -309t-119 -331t-59 -343.5z" />
<glyph unicode=")" horiz-adv-x="610" d="M20 -12l228 -70q93 155 162.5 308.5t119 331.5t59 343.5t-30 341t-134.5 328.5l-242 -60q72 -148 101 -308.5t20.5 -310t-49 -310.5t-98 -302t-136.5 -292z" />
<glyph unicode="*" />
<glyph unicode="+" />
<glyph unicode="," horiz-adv-x="317" d="M24 128q-16 -87 37 -117q19 -10 45 -11q-24 -40 -57 -66l51 -40q13 -11 66 51q82 96 116 195q44 127 -38 165q-74 35 -146 -37q-59 -59 -74 -140z" />
<glyph unicode="-" />
<glyph unicode="." horiz-adv-x="313" d="M21 82q7 -71 71 -81q12 -2 25 -1q75 4 131 85q50 74 44.5 146t-69.5 81q-12 2 -26 1q-78 -4 -134 -86q-49 -74 -42 -145z" />
<glyph unicode="/" />
<glyph unicode="0" horiz-adv-x="661" d="M-41 522q-3 -120 18 -237q18 -107 58 -170q39 -64 84 -90q51 -28 104 -25q51 3 109 31q52 27 100 78q46 47 84 108q69 121 115 264q39 125 59 269q16 138 10 251q-3 122 -24 216q-8 45 -37 98q-27 49 -66 78q-42 31 -92 37q-51 6 -112 -31q-62 -33 -125 -99 q-61 -68 -109 -147q-46 -74 -90 -186q-37 -100 -61 -215q-22 -117 -25 -230zM207 600v4q9 128 43 215q34 90 74 133q38 44 73 35q19 -6 31 -33zM223 426l223 358q0 -18 -2 -28q-3 -43 -16 -101q-11 -49 -37 -120q-20 -62 -57 -105q-35 -41 -68 -41q-25 0 -43 37z" />
<glyph unicode="1" horiz-adv-x="471" d="M-41 1073l82 -215l111 129l-101 -932l258 -55l203 1442l-303 -47z" />
<glyph unicode="2" horiz-adv-x="718" d="M-41 0l633 51l55 424l-293 -53q56 51 115 118.5t115.5 150.5t99.5 168t62 172t9 161t-66 135.5t-157 95.5q-27 9 -56 9.5t-57.5 -7.5t-57.5 -20.5t-57.5 -32t-55 -40t-53 -45.5t-48.5 -48t-44.5 -49t-39 -45.5t-32.5 -40.5l106 -324q50 66 173.5 174.5t144.5 49.5 q11 -29 -86.5 -156.5t-217.5 -280.5t-147 -219q-13 -32 -21.5 -96.5t-14.5 -147.5t-9 -104z" />
<glyph unicode="3" horiz-adv-x="671" d="M-41 236q214 -260 404 -234q129 18 215 163q82 139 84 318q3 190 -88 302q-7 8 -15 16q129 118 150 286q17 145 -52 251q-70 109 -193 112q-165 5 -358 -186l70 -306q122 120 202 108q42 -6 51 -44q10 -42 -28 -74q-45 -37 -125 -26l-45 -287q107 15 152 -46 q32 -43 15 -90q-17 -45 -65 -44q-79 1 -179 133z" />
<glyph unicode="4" horiz-adv-x="774" d="M-41 582l139 -287l273 33l-58 -328l277 18l47 314l96 2l60 395l-99 -27l23 101h-248l-14 -98h-111l471 600l-250 131z" />
<glyph unicode="5" horiz-adv-x="641" d="M-41 424l4 -418q280 -35 461 149q135 137 177 347q38 188 -16 331q-50 132 -159 156q-73 16 -162 -22l43 127l342 -4l33 354l-539 -41l-125 -770q157 101 239 58q52 -28 48 -98q-5 -76 -67 -133q-91 -83 -233 -50q-23 6 -46 14z" />
<glyph unicode="6" horiz-adv-x="593" d="M-16 437q-92 -405 153 -435q25 -3 53 -2q192 6 316 195q103 154 124 364q19 191 -41 304q-47 91 -132 89q-33 0 -72 -28q120 188 236 317l-140 256q-70 -88 -197 -324q-231 -431 -300 -736zM220 409.5q-10 35.5 0.5 78.5t31.5 83t53 62.5t64 13.5q30 -9 40 -44.5 t-0.5 -78.5t-31.5 -83t-53 -62.5t-64 -13.5q-30 9 -40 44.5z" />
<glyph unicode="7" horiz-adv-x="483" d="M-41 55l297 -55q17 64 76 290.5t83 316t70 261t84 305.5t78 269l-631 -56l-26 -380l291 53q-70 -188 -108.5 -299t-54.5 -168.5t-58.5 -204t-100.5 -332.5z" />
<glyph unicode="8" horiz-adv-x="630" d="M-34.5 416q-33.5 -197 50.5 -327t269 -73q96 29 178.5 130.5t125.5 223t41.5 247t-59.5 198.5q68 103 92 265q29 190 -31 294q-65 115 -222 68q-74 -24 -140.5 -81.5t-111.5 -134t-70 -160.5t-18.5 -170t45.5 -153q-116 -130 -149.5 -327zM190 360q0 86 44 165 q47 83 100 69q32 -10 36.5 -63t-12 -111t-51 -103.5t-71.5 -42.5q-47 4 -46 86zM293 976q3 72 41 130q33 49 69 39q20 -5 26.5 -31.5t-0.5 -61.5t-20.5 -69t-35 -56.5t-43.5 -21.5q-39 2 -37 71z" />
<glyph unicode="9" horiz-adv-x="602" d="M-42.5 817q0.5 -69 19.5 -125q26 -76 88 -114.5t144 -20.5q-116 -183 -229 -307l135 -250q80 98 212 342q228 421 294 713q85 375 -149 394q-20 2 -42 1q-65 -3 -128 -32.5t-114 -77.5t-95 -110t-73.5 -132.5t-46 -141t-16 -139.5zM184.5 870.5q-9.5 34.5 2 76t32.5 79.5 t52 59.5t59 12.5q53 -16 42 -99q-11 -75 -60 -134q-45 -54 -87 -40q-31 11 -40.5 45.5z" />
<glyph unicode=":" horiz-adv-x="446" d="M41 82q7 -71 71 -81q12 -2 25 -1q76 4 132 85q51 74 45 146t-72 81q-11 2 -25 1q-78 -4 -134 -86q-49 -74 -42 -145zM131 677q7 -70 71 -80q12 -2 25 -1q76 5 132 87q51 74 45 146q-5 72 -71 81q-11 2 -24 1q-80 -5 -135 -88q-50 -74 -43 -146z" />
<glyph unicode=";" horiz-adv-x="444" d="M44 237q-15 -87 38 -117q19 -10 45 -11q-24 -40 -57 -66l51 -41q13 -11 65 51q82 97 116 197q43 126 -38 164q-74 35 -146 -37q-59 -59 -74 -140zM129 784q7 -72 71 -81q12 -2 25 -1q76 4 133 86q50 74 44.5 146t-69.5 81q-12 2 -26 1q-79 -4 -135 -86q-50 -74 -43 -146z " />
<glyph unicode="&#x3c;" />
<glyph unicode="=" />
<glyph unicode="&#x3e;" />
<glyph unicode="?" horiz-adv-x="886" d="M21 62q7 -71 71 -81q12 -2 25 -1q76 4 132 85q51 74 45 146t-72 81q-11 2 -25 1q-78 -4 -134 -86q-49 -74 -42 -145zM33 383l256 53q10 40 51 101.5t95.5 128.5t120 145.5t123.5 157t106 158.5t67 155.5t8 142t-72.5 123t-173.5 94.5q-27 9 -56 9.5t-57.5 -7.5 t-57.5 -20.5t-57.5 -32t-55 -40t-53 -45.5t-48.5 -48t-44.5 -49t-39 -45.5t-32.5 -40.5l106 -324q50 66 173.5 174.5t144.5 49.5q8 -23 -51.5 -109.5t-138.5 -182.5t-159 -203.5t-102 -160.5q-2 -5 -10 -24.5t-9.5 -23.5t-7 -19t-7 -21t-5.5 -19.5t-5.5 -23t-4 -23.5 t-4.5 -30z" />
<glyph unicode="@" horiz-adv-x="1212" d="M-20.5 586.5q-1.5 -102.5 11.5 -202.5t49 -189.5t90.5 -156.5t140.5 -105t194 -35q197 5 383 188l29 29l-166 170l-31 -31q-121 -117 -221 -119q-88 -3 -144.5 55.5t-76.5 148t-21 194t13.5 194t35.5 147.5q22 62 53 124t77.5 126.5t98.5 109.5t119.5 65.5t137.5 3.5 q54 -13 97 -45.5t70.5 -77.5t45.5 -97.5t24.5 -110t6 -111t-8.5 -103.5q-4 -26 -17.5 -64.5t-39 -74t-51.5 -33.5q-20 2 -31 80q-4 58 2 104l6 94l-197 6q3 -6 3 -10q-2 -2 -7 -2q0 -14 2 -22q1 -28 -7.5 -79.5t-23.5 -107.5t-42 -96.5t-58 -40.5q-37 0 -43 69t6 139.5 t25 102.5q18 50 64 113q68 95 85 32l5 -32l168 16q-1 9 -3 37t-4 42.5t-5.5 43t-9 45t-13 40.5t-19 38.5t-25.5 29.5t-34 23t-43 11q-52 6 -104 -28.5t-92 -90.5t-74.5 -125.5t-56 -131.5t-31.5 -112q-9 -46 -14 -110t0 -143t22.5 -143.5t59.5 -107t104 -39.5q130 8 225 183 q43 -56 139 -64q74 -6 140 25.5t111 88t74.5 123.5t39.5 136q14 80 10 166t-18 168t-49 159.5t-82 140t-118 109.5t-157 68q-96 21 -181 12t-162 -50t-141.5 -98t-119 -132t-95 -152.5t-69.5 -159.5q-27 -78 -43.5 -171.5t-18 -196z" />
<glyph unicode="A" horiz-adv-x="911" d="M-61 186l294 -186l89 287l229 12l47 -266l375 227l-252 1176l-219 -47zM426 590l121 299l12 -260z" />
<glyph unicode="B" horiz-adv-x="745" d="M-61 16q91 -17 176 -17q105 0 202 26q174 47 291.5 172.5t151.5 310.5q7 35 7 69q0 148 -124 269q149 176 162 328q1 18 1 35q0 59 -16 103q-21 56 -55 87t-95 41q-58 10 -107 11q-3 -1 -5 -1q-50 0 -128.5 -15.5t-123 -27.5t-116.5 -33zM283 373l16 182q31 21 59.5 33 t55.5 14q28 1 42 -21q12 -18 12 -52q0 -7 -1 -15q-6 -76 -58 -114q-40 -30 -94 -29q-16 0 -32 2zM360 864l37 183q40 22 64 22q11 0 18 -5q14 -10 14 -40q0 -16 -4 -39q-42 -124 -108 -124q-10 0 -21 3z" />
<glyph unicode="C" horiz-adv-x="735" d="M-60 414q8 -178 87 -301q38 -59 97 -87q54 -26 112 -26h10q64 2 132.5 26t128 64t107.5 90.5t74 102.5l-143 340q-97 -115 -158 -146q-32 -16 -57 -17q-46 0 -64 58q-11 33 -10 75q0 59 22 137q38 132 103 186q15 12 29 18q13 5 25 5q63 0 122 -136l240 350 q-33 92 -78.5 155.5t-104.5 97.5q-43 25 -95 25q-20 0 -40 -3q-76 -13 -160 -78q-106 -94 -195.5 -252t-139.5 -332q-44 -152 -44 -306q-1 -23 0 -46z" />
<glyph unicode="D" horiz-adv-x="829" d="M-61 10q53 -11 105 -11q185 0 372 134q194 138 328 372q137 240 146 463q1 14 1 27q0 221 -143 333q-119 94 -323 94q-121 0 -271 -33zM276 412l97 506q64 66 107 66q22 0 37 -17q29 -32 29 -103q0 -28 -4 -62q-20 -146 -103 -261q-70 -98 -163 -129z" />
<glyph unicode="E" horiz-adv-x="720" d="M-61 0l600 51l86 484l-324 -50l18 97l189 24l76 305l-205 -22l14 84l281 18l108 443l-620 -72z" />
<glyph unicode="F" horiz-adv-x="718" d="M-61 0l282 10l86 447l236 22l47 367l-236 -23l35 135l281 19l110 453l-620 -70z" />
<glyph unicode="G" horiz-adv-x="815" d="M-58 471q-3 -42 -3 -81q0 -53 5 -102q10 -84 48.5 -154.5t103.5 -100.5q73 -32 142 -32q46 0 91 15q111 36 206.5 133.5t168 226.5t116.5 260.5t52 235.5l-471 -90l-61 -266l156 43q-27 -61 -79.5 -113.5t-109.5 -56.5h-6q-49 0 -69 44q-16 34 -16 79q0 17 2 36 q8 67 24 126.5t32 93.5q39 81 108.5 149t143.5 68q47 0 71.5 -29t27.5 -77l252 325q-56 119 -127 178t-143 59q-1 0 -1 -1q-73 0 -149 -38t-145 -108t-129.5 -153.5t-105.5 -171.5t-71 -166q-23 -70 -40 -152t-24 -180z" />
<glyph unicode="H" horiz-adv-x="841" d="M-61 0l272 8l78 398l119 24l-78 -379l260 49l313 1330l-315 -25l-115 -600l-164 -21l146 633l-326 -49z" />
<glyph unicode="I" horiz-adv-x="448" d="M-61 0l292 51l279 1389l-328 -62z" />
<glyph unicode="J" horiz-adv-x="724" d="M-60 386q-2 -17 -2 -36q0 -47 8 -98q12 -70 41 -125t90 -91t148 -36t161.5 49t127.5 132t96.5 190.5t71 226t48.5 237t31 226t16.5 190.5t7.5 132l1 49l-317 -84q4 -56 4 -140t-5 -193t-21 -216.5t-40.5 -200t-67 -154t-97.5 -69.5q-6 -1 -11 -1q-52 0 -52 77 q0 59 30 162q1 1 1 3l3 9l-254 -117q-15 -58 -19 -122z" />
<glyph unicode="K" horiz-adv-x="690" d="M-61 41l272 49l37 203l145 -293l199 336l-193 330l353 413l-138 371l-221 -356l51 288l-305 -57z" />
<glyph unicode="L" horiz-adv-x="522" d="M-61 0l577 90l68 475l-277 -86l189 955l-334 -72z" />
<glyph unicode="M" horiz-adv-x="1181" d="M-61 152l548 1327l218 -514l436 514l102 -1385l-373 -94l-24 606l-236 -444l-114 471l-207 -553z" />
<glyph unicode="N" horiz-adv-x="864" d="M-61 35l313 -35l104 559l318 -534l252 1405l-314 -31l-51 -398l-354 322z" />
<glyph unicode="O" horiz-adv-x="796" d="M-61 421q1 -111 23 -202.5t84 -154t159 -64.5h8q93 0 179 46q90 48 157.5 124.5t123.5 175.5t91 192.5t55 182.5q15 60 25 126q9 65 14 145q2 26 2 53q0 51 -7 99q-10 72 -32 135t-69.5 106t-114.5 55q-21 4 -43 4q-60 0 -124 -29q-87 -39 -159.5 -110t-138 -162 t-111 -180.5t-69.5 -165.5q-22 -73 -38 -169q-15 -90 -15 -194v-13zM194 546q7 64 21.5 122t30.5 96q15 34 35.5 69t48 70t62 58t69.5 26q5 1 10 1q33 0 53 -24q22 -26 26 -70q2 -25 2 -49q0 -17 -2 -33q-2 -38 -9 -71q-11 -46 -34.5 -104t-57.5 -118.5t-82 -100.5 q-44 -36 -88 -35h-9q-46 3 -64 51q-13 34 -14 78q0 16 2 34z" />
<glyph unicode="P" horiz-adv-x="774" d="M-61 43l258 -43l57 313q156 45 314 216q157 170 228 367q41 114 41 207t-41 165q-95 164 -388 164q-46 0 -98 -4q-74 -6 -158 -21zM297 737l57 279q59 33 95 33q30 0 44 -23q10 -16 10 -38q0 -35 -25 -85q-46 -92 -130 -142q-25 -15 -51 -24z" />
<glyph unicode="Q" horiz-adv-x="825" d="M-62 502q-1 -9 -1 -18q0 -61 9 -120q11 -66 32 -125.5t61.5 -104.5t95.5 -66q50 -16 99 -16q29 0 58 6q76 15 148 61l37 -119l197 246l-35 76q155 234 211 503q8 42 14 77t12.5 87.5t9.5 96.5q1 24 1 51q0 21 -1 45q-2 52 -10.5 94t-26 85t-43 73.5t-64.5 53.5t-89 32 q-20 3 -41 3q-68 0 -141 -37q-95 -50 -175 -138.5t-150 -197.5t-116 -214.5t-65 -187.5q-12 -54 -19 -115t-8 -131zM203 612q2 34 8 64q7 49 28.5 109t53.5 121t80 104.5t100 48.5q6 1 11 1q41 0 62 -34q23 -36 23 -90q0 -3 -1 -6q-1 -59 -10 -110.5t-21 -86.5 q-18 -47 -45 -102l-41 84l-125 -205l16 -53q-36 -15 -58 -15h-5q-34 2 -53 29t-22 67q-2 25 -2 47q0 14 1 27z" />
<glyph unicode="R" horiz-adv-x="778" d="M-61 57l258 -43l53 297l213 -311l221 303l-188 238q98 84 178 192t124 220q41 103 41 197v16q-4 102 -74 172q-69 68 -219 92q-53 8 -118 9q-119 0 -278 -28zM295 745l59 279q59 33 94 33q30 0 43 -23q9 -16 9 -37q0 -35 -25 -86q-46 -93 -129 -143q-26 -15 -51 -23z" />
<glyph unicode="S" horiz-adv-x="751" d="M-61 96l145 369q7 -7 18.5 -18t44.5 -35t63 -36q25 -10 54 -10q8 0 14 1q36 3 62 32q22 24 24.5 50t-9.5 49.5t-36 53.5t-50.5 58t-57 68t-51.5 78q-52 94 -56 195q-1 12 0 23q0 88 31 164q35 86 104.5 156t157.5 108q84 36 187 35h11q110 -2 218 -53l-131 -399 q-4 22 -37 49t-75 46q-40 18 -84 18h-4q-46 -1 -72 -31q-13 -15 -14.5 -35.5t7 -42t25 -47.5t36.5 -51.5t44.5 -55t46.5 -56t44.5 -56.5t37.5 -55q43 -71 55 -148q6 -36 5 -71q0 -39 -7 -77q-14 -71 -51 -136t-90.5 -114.5t-124 -81t-147.5 -39.5q-20 -2 -40 -2 q-59 -1 -125 17q-88 24 -173 80z" />
<glyph unicode="T" horiz-adv-x="598" d="M-61 0l321 61l166 975l135 25l98 412l-604 -80l-80 -426l148 22z" />
<glyph unicode="U" horiz-adv-x="823" d="M-60 353q12 -353 231 -353h11h8q77 5 148 46.5t126.5 103t106 154.5t87.5 183t71.5 207.5t56.5 209.5t43.5 208t32 182.5t23.5 153.5l-310 -86q-2 -6 -29 -133.5t-55 -241t-65.5 -249.5t-77.5 -223.5t-74 -98.5q-4 -1 -7 -1q-27 0 -27 75q0 160 122 662q12 49 32 131 q23 90 26 106l-297 86q-4 -24 -74 -338q-110 -490 -110 -750q0 -17 1 -34z" />
<glyph unicode="V" horiz-adv-x="753" d="M-61 1198l219 -1198l657 1223l-215 233l-270 -557l-54 571z" />
<glyph unicode="W" horiz-adv-x="960" d="M-61 1300l92 -1300l352 524l184 -413l455 1189l-191 267l-221 -578l-82 424l-260 -450l-20 528z" />
<glyph unicode="X" horiz-adv-x="880" d="M-61 315l184 -315l272 485l158 -471l256 338l-182 410l315 405l-186 277l-250 -332l-148 332l-280 -277l170 -430z" />
<glyph unicode="Y" horiz-adv-x="755" d="M-61 1143l167 -590l-83 -494l274 -59l86 483l434 660l-213 282l-280 -467l-109 467z" />
<glyph unicode="Z" horiz-adv-x="913" d="M-61 0l794 80l135 487l-411 -75l518 942l-793 -39l-133 -441l313 33z" />
<glyph unicode="[" />
<glyph unicode="\" />
<glyph unicode="]" />
<glyph unicode="^" />
<glyph unicode="_" />
<glyph unicode="a" horiz-adv-x="911" d="M-61 186l294 -186l89 287l229 12l47 -266l375 227l-252 1176l-219 -47zM426 590l121 299l12 -260z" />
<glyph unicode="b" horiz-adv-x="745" d="M-61 16q91 -17 176 -17q105 0 202 26q174 47 291.5 172.5t151.5 310.5q7 35 7 69q0 148 -124 269q149 176 162 328q1 18 1 35q0 59 -16 103q-21 56 -55 87t-95 41q-58 10 -107 11q-3 -1 -5 -1q-50 0 -128.5 -15.5t-123 -27.5t-116.5 -33zM283 373l16 182q31 21 59.5 33 t55.5 14q28 1 42 -21q12 -18 12 -52q0 -7 -1 -15q-6 -76 -58 -114q-40 -30 -94 -29q-16 0 -32 2zM360 864l37 183q40 22 64 22q11 0 18 -5q14 -10 14 -40q0 -16 -4 -39q-42 -124 -108 -124q-10 0 -21 3z" />
<glyph unicode="c" horiz-adv-x="735" d="M-60 414q8 -178 87 -301q38 -59 97 -87q54 -26 112 -26h10q64 2 132.5 26t128 64t107.5 90.5t74 102.5l-143 340q-97 -115 -158 -146q-32 -16 -57 -17q-46 0 -64 58q-11 33 -10 75q0 59 22 137q38 132 103 186q15 12 29 18q13 5 25 5q63 0 122 -136l240 350 q-33 92 -78.5 155.5t-104.5 97.5q-43 25 -95 25q-20 0 -40 -3q-76 -13 -160 -78q-106 -94 -195.5 -252t-139.5 -332q-44 -152 -44 -306q-1 -23 0 -46z" />
<glyph unicode="d" horiz-adv-x="829" d="M-61 10q53 -11 105 -11q185 0 372 134q194 138 328 372q137 240 146 463q1 14 1 27q0 221 -143 333q-119 94 -323 94q-121 0 -271 -33zM276 412l97 506q64 66 107 66q22 0 37 -17q29 -32 29 -103q0 -28 -4 -62q-20 -146 -103 -261q-70 -98 -163 -129z" />
<glyph unicode="e" horiz-adv-x="720" d="M-61 0l600 51l86 484l-324 -50l18 97l189 24l76 305l-205 -22l14 84l281 18l108 443l-620 -72z" />
<glyph unicode="f" horiz-adv-x="718" d="M-61 0l282 10l86 447l236 22l47 367l-236 -23l35 135l281 19l110 453l-620 -70z" />
<glyph unicode="g" horiz-adv-x="815" d="M-58 471q-3 -42 -3 -81q0 -53 5 -102q10 -84 48.5 -154.5t103.5 -100.5q73 -32 142 -32q46 0 91 15q111 36 206.5 133.5t168 226.5t116.5 260.5t52 235.5l-471 -90l-61 -266l156 43q-27 -61 -79.5 -113.5t-109.5 -56.5h-6q-49 0 -69 44q-16 34 -16 79q0 17 2 36 q8 67 24 126.5t32 93.5q39 81 108.5 149t143.5 68q47 0 71.5 -29t27.5 -77l252 325q-56 119 -127 178t-143 59q-1 0 -1 -1q-73 0 -149 -38t-145 -108t-129.5 -153.5t-105.5 -171.5t-71 -166q-23 -70 -40 -152t-24 -180z" />
<glyph unicode="h" horiz-adv-x="841" d="M-61 0l272 8l78 398l119 24l-78 -379l260 49l313 1330l-315 -25l-115 -600l-164 -21l146 633l-326 -49z" />
<glyph unicode="i" horiz-adv-x="448" d="M-61 0l292 51l279 1389l-328 -62z" />
<glyph unicode="j" horiz-adv-x="724" d="M-60 386q-2 -17 -2 -36q0 -47 8 -98q12 -70 41 -125t90 -91t148 -36t161.5 49t127.5 132t96.5 190.5t71 226t48.5 237t31 226t16.5 190.5t7.5 132l1 49l-317 -84q4 -56 4 -140t-5 -193t-21 -216.5t-40.5 -200t-67 -154t-97.5 -69.5q-6 -1 -11 -1q-52 0 -52 77 q0 59 30 162q1 1 1 3l3 9l-254 -117q-15 -58 -19 -122z" />
<glyph unicode="k" horiz-adv-x="690" d="M-61 41l272 49l37 203l145 -293l199 336l-193 330l353 413l-138 371l-221 -356l51 288l-305 -57z" />
<glyph unicode="l" horiz-adv-x="522" d="M-61 0l577 90l68 475l-277 -86l189 955l-334 -72z" />
<glyph unicode="m" horiz-adv-x="1181" d="M-61 152l548 1327l218 -514l436 514l102 -1385l-373 -94l-24 606l-236 -444l-114 471l-207 -553z" />
<glyph unicode="n" horiz-adv-x="864" d="M-61 35l313 -35l104 559l318 -534l252 1405l-314 -31l-51 -398l-354 322z" />
<glyph unicode="o" horiz-adv-x="796" d="M-61 421q1 -111 23 -202.5t84 -154t159 -64.5h8q93 0 179 46q90 48 157.5 124.5t123.5 175.5t91 192.5t55 182.5q15 60 25 126q9 65 14 145q2 26 2 53q0 51 -7 99q-10 72 -32 135t-69.5 106t-114.5 55q-21 4 -43 4q-60 0 -124 -29q-87 -39 -159.5 -110t-138 -162 t-111 -180.5t-69.5 -165.5q-22 -73 -38 -169q-15 -90 -15 -194v-13zM194 546q7 64 21.5 122t30.5 96q15 34 35.5 69t48 70t62 58t69.5 26q5 1 10 1q33 0 53 -24q22 -26 26 -70q2 -25 2 -49q0 -17 -2 -33q-2 -38 -9 -71q-11 -46 -34.5 -104t-57.5 -118.5t-82 -100.5 q-44 -36 -88 -35h-9q-46 3 -64 51q-13 34 -14 78q0 16 2 34z" />
<glyph unicode="p" horiz-adv-x="774" d="M-61 43l258 -43l57 313q156 45 314 216q157 170 228 367q41 114 41 207t-41 165q-95 164 -388 164q-47 0 -98 -4q-74 -6 -158 -21zM297 737l57 279q59 33 95 33q30 0 44 -23q10 -16 10 -38q0 -35 -25 -85q-46 -92 -130 -142q-25 -15 -51 -24z" />
<glyph unicode="q" horiz-adv-x="825" d="M-62 502q-1 -9 -1 -18q0 -61 9 -120q11 -66 32 -125.5t61.5 -104.5t95.5 -66q50 -16 99 -16q29 0 58 6q76 15 148 61l37 -119l197 246l-35 76q155 234 211 503q8 42 14 77t12.5 87.5t9.5 96.5q1 24 1 51q0 21 -1 45q-2 52 -10.5 94t-26 85t-43 73.5t-64.5 53.5t-89 32 q-20 3 -41 3q-68 0 -141 -37q-95 -50 -175 -138.5t-150 -197.5t-116 -214.5t-65 -187.5q-12 -54 -19 -115t-8 -131zM203 612q2 34 8 64q7 49 28.5 109t53.5 121t80 104.5t100 48.5q6 1 11 1q41 0 62 -34q23 -36 23 -90q0 -3 -1 -6q-1 -59 -10 -110.5t-21 -86.5 q-18 -47 -45 -102l-41 84l-125 -205l16 -53q-36 -15 -58 -15h-5q-34 2 -53 29t-22 67q-2 25 -2 47q0 14 1 27z" />
<glyph unicode="r" horiz-adv-x="778" d="M-61 57l258 -43l53 297l213 -311l221 303l-188 238q98 84 178 192t124 220q41 103 41 197v16q-4 102 -74 172q-69 68 -219 92q-53 8 -118 9q-119 0 -278 -28zM295 745l59 279q59 33 94 33q30 0 43 -23q9 -16 9 -37q0 -35 -25 -86q-46 -93 -129 -143q-26 -15 -51 -23z" />
<glyph unicode="s" horiz-adv-x="751" d="M-61 96l145 369q7 -7 18.5 -18t44.5 -35t63 -36q25 -10 54 -10q8 0 14 1q36 3 62 32q22 24 24.5 50t-9.5 49.5t-36 53.5t-50.5 58t-57 68t-51.5 78q-52 94 -56 195q-1 12 0 23q0 88 31 164q35 86 104.5 156t157.5 108q84 36 187 35h11q110 -2 218 -53l-131 -399 q-4 22 -37 49t-75 46q-40 18 -84 18h-4q-46 -1 -72 -31q-13 -15 -14.5 -35.5t7 -42t25 -47.5t36.5 -51.5t44.5 -55t46.5 -56t44.5 -56.5t37.5 -55q43 -71 55 -148q6 -36 5 -71q0 -39 -7 -77q-14 -71 -51 -136t-90.5 -114.5t-124 -81t-147.5 -39.5q-20 -2 -40 -2 q-59 -1 -125 17q-88 24 -173 80z" />
<glyph unicode="t" horiz-adv-x="598" d="M-61 0l321 61l166 975l135 25l98 412l-604 -80l-80 -426l148 22z" />
<glyph unicode="u" horiz-adv-x="823" d="M-60 353q12 -353 231 -353h11h8q77 5 148 46.5t126.5 103t106 154.5t87.5 183t71.5 207.5t56.5 209.5t43.5 208t32 182.5t23.5 153.5l-310 -86q-2 -6 -29 -133.5t-55 -241t-65.5 -249.5t-77.5 -223.5t-74 -98.5q-4 -1 -7 -1q-27 0 -27 75q0 160 122 662q12 49 32 131 q23 90 26 106l-297 86q-4 -24 -74 -338q-110 -490 -110 -750q0 -17 1 -34z" />
<glyph unicode="v" horiz-adv-x="753" d="M-61 1198l219 -1198l657 1223l-215 233l-270 -557l-54 571z" />
<glyph unicode="w" horiz-adv-x="960" d="M-61 1300l92 -1300l352 524l184 -413l455 1189l-191 267l-221 -578l-82 424l-260 -450l-20 528z" />
<glyph unicode="x" horiz-adv-x="880" d="M-61 315l184 -315l272 485l158 -471l256 338l-182 410l315 405l-186 277l-250 -332l-148 332l-280 -277l170 -430z" />
<glyph unicode="y" horiz-adv-x="755" d="M-61 1143l167 -590l-83 -494l274 -59l86 483l434 660l-213 282l-280 -467l-109 467z" />
<glyph unicode="z" horiz-adv-x="913" d="M-61 0l794 80l135 487l-411 -75l518 942l-793 -39l-133 -441l313 33z" />
<glyph unicode="{" />
<glyph unicode="|" />
<glyph unicode="}" />
<glyph unicode="~" />
<glyph unicode="&#xa1;" />
<glyph unicode="&#xa2;" />
<glyph unicode="&#xa3;" />
<glyph unicode="&#xa4;" />
<glyph unicode="&#xa5;" />
<glyph unicode="&#xa6;" />
<glyph unicode="&#xa7;" />
<glyph unicode="&#xa9;" />
<glyph unicode="&#xab;" />
<glyph unicode="&#xac;" />
<glyph unicode="&#xad;" />
<glyph unicode="&#xae;" />
<glyph unicode="&#xb0;" />
<glyph unicode="&#xb1;" />
<glyph unicode="&#xb6;" />
<glyph unicode="&#xb7;" />
<glyph unicode="&#xbb;" />
<glyph unicode="&#xbf;" />
<glyph unicode="&#xd7;" />
<glyph unicode="&#xf7;" />
<glyph unicode="&#x2000;" horiz-adv-x="835" />
<glyph unicode="&#x2001;" horiz-adv-x="1671" />
<glyph unicode="&#x2002;" horiz-adv-x="835" />
<glyph unicode="&#x2003;" horiz-adv-x="1671" />
<glyph unicode="&#x2004;" horiz-adv-x="557" />
<glyph unicode="&#x2005;" horiz-adv-x="417" />
<glyph unicode="&#x2006;" horiz-adv-x="278" />
<glyph unicode="&#x2007;" horiz-adv-x="278" />
<glyph unicode="&#x2008;" horiz-adv-x="208" />
<glyph unicode="&#x2009;" horiz-adv-x="334" />
<glyph unicode="&#x200a;" horiz-adv-x="92" />
<glyph unicode="&#x2010;" />
<glyph unicode="&#x2011;" />
<glyph unicode="&#x2012;" />
<glyph unicode="&#x2013;" />
<glyph unicode="&#x2014;" />
<glyph unicode="&#x2018;" horiz-adv-x="333" d="M20 1229l86 340l207 12l-159 -336z" />
<glyph unicode="&#x2019;" horiz-adv-x="333" d="M20 1229l86 340l207 12l-159 -336z" />
<glyph unicode="&#x201a;" d="M24 128q-16 -87 37 -117q19 -10 45 -11q-24 -40 -57 -66l51 -40q13 -11 66 51q82 96 116 195q44 127 -38 165q-74 35 -146 -37q-59 -59 -74 -140z" />
<glyph unicode="&#x201c;" />
<glyph unicode="&#x201d;" horiz-adv-x="585" d="M20 1229l86 340l207 12l-159 -336zM272 1229l134 16l159 336l-205 -12z" />
<glyph unicode="&#x201e;" d="M24 128q-16 -87 37 -117q19 -10 45 -11q-24 -40 -57 -66l51 -40q13 -11 66 51q82 96 116 195q44 127 -38 165q-74 35 -146 -37q-59 -59 -74 -140zM24 128q-16 -87 37 -117q19 -10 45 -11q-24 -40 -57 -66l51 -40q13 -11 66 51q82 96 116 195q44 127 -38 165 q-74 35 -146 -37q-59 -59 -74 -140z" />
<glyph unicode="&#x2022;" />
<glyph unicode="&#x2026;" d="M21 82q7 -71 71 -81q12 -2 25 -1q75 4 131 85q50 74 44.5 146t-69.5 81q-12 2 -26 1q-78 -4 -134 -86q-49 -74 -42 -145zM21 82q7 -71 71 -81q12 -2 25 -1q75 4 131 85q50 74 44.5 146t-69.5 81q-12 2 -26 1q-78 -4 -134 -86q-49 -74 -42 -145zM21 82q7 -71 71 -81 q12 -2 25 -1q75 4 131 85q50 74 44.5 146t-69.5 81q-12 2 -26 1q-78 -4 -134 -86q-49 -74 -42 -145z" />
<glyph unicode="&#x202f;" horiz-adv-x="334" />
<glyph unicode="&#x2039;" />
<glyph unicode="&#x203a;" />
<glyph unicode="&#x205f;" horiz-adv-x="417" />
<glyph unicode="&#x20ac;" />
<glyph unicode="&#x2122;" horiz-adv-x="1470" d="M-61 0l321 61l166 975l135 25l98 412l-604 -80l-80 -426l148 22zM227 152l549 1327l217 -514l437 514l102 -1385l-373 -94l-24 606l-236 -444l-115 471l-206 -553z" />
<glyph unicode="&#x25fc;" horiz-adv-x="1443" d="M0 0v1444h1444v-1444h-1444z" />
</font>
</defs>
</svg>
