<svg width="43" height="51" viewBox="0 0 43 51" fill="none" xmlns="http://www.w3.org/2000/svg">
<g clip-path="url(#clip0_4021_7663)">
<path fill-rule="evenodd" clip-rule="evenodd" d="M25.6827 18.3373C27.2015 17.58 29.1341 16.4652 31.0689 14.9378C31.4769 15.785 31.5216 16.5242 31.3114 17.1212C31.1624 17.5419 30.8817 17.9078 30.5127 18.199C30.113 18.5136 29.6138 18.7426 29.0621 18.8664C28.0151 19.1023 26.7927 18.9646 25.6827 18.3373ZM25.946 26.097L27.9565 27.2583C23.8514 29.5591 22.7354 33.8314 21.4098 37.9925C20.0843 33.8314 18.9681 29.5591 14.8632 27.2583L16.8737 26.097C17.0682 26.0235 17.2345 25.8903 17.3486 25.7165C17.4628 25.5428 17.519 25.3373 17.5093 25.1296C17.3251 21.2326 18.3773 19.5092 19.7966 18.4272C20.3057 18.0396 20.8615 17.8449 21.4098 17.8449C21.9581 17.8449 22.5138 18.0396 23.0231 18.4272C24.4424 19.5092 25.4947 21.2326 25.3105 25.1296C25.3007 25.3373 25.357 25.5428 25.4711 25.7165C25.5853 25.8903 25.7515 26.0235 25.946 26.097ZM21.4098 0.650879C23.7337 0.713273 26.0635 1.16443 28.0854 2.04208C29.4856 2.65063 30.792 3.45447 31.975 4.4157C32.5093 4.84964 32.9492 5.26885 33.4338 5.75146C34.7407 5.79664 36.6508 4.3447 37.5375 2.9861C36.0115 7.98919 29.0475 13.8974 24.2263 16.1582C24.2243 16.1573 24.223 16.1562 24.2215 16.1552C23.3562 15.4945 22.3831 15.1642 21.4098 15.1642C20.4365 15.1642 19.4635 15.4945 18.5983 16.1552C18.5968 16.156 18.5954 16.1575 18.5935 16.1582C13.7721 13.8974 6.80828 7.98919 5.2822 2.9861C6.16879 4.3447 8.07883 5.79664 9.3858 5.75146C9.87055 5.26902 10.3105 4.84964 10.8445 4.4157C12.0275 3.45447 13.334 2.65063 14.7341 2.04208C16.7562 1.16443 19.086 0.713273 21.4098 0.650879ZM17.1369 18.3373C15.6182 17.58 13.6855 16.4652 11.7508 14.9378C11.3428 15.785 11.2982 16.5242 11.5082 17.1212C11.6573 17.5419 11.938 17.9078 12.3069 18.199C12.7067 18.5136 13.2059 18.7426 13.7577 18.8664C14.8046 19.1023 16.0269 18.9646 17.1369 18.3373Z" fill="#0C0405"/>
<path fill-rule="evenodd" clip-rule="evenodd" d="M33.1753 13.0554C34.2404 11.9805 35.179 10.7907 35.9337 9.729L36.317 10.4504C37.5509 12.9192 38.1921 15.3781 38.1921 18.1452L38.1895 22.5363L38.2126 24.8126C38.302 30.4009 39.5111 36.0549 42.2502 41.2292L36.5194 36.608L32.4644 43.1882L28.2044 39.1779L21.3971 50.225L14.5897 39.1781L10.3298 43.1884L6.27489 36.6082L0.543915 41.2293C3.28296 36.0551 4.49211 30.4011 4.58164 24.8128L4.60482 22.5365L4.60217 18.1454C4.60217 15.3781 5.24315 12.9192 6.47746 10.4506L6.86059 9.72917C7.61528 10.7909 8.55367 11.9805 9.619 13.0556L9.28634 13.7465C8.64006 15.0886 8.42607 16.5892 8.92952 18.0163C9.25407 18.9355 9.8464 19.7238 10.61 20.3255C11.3515 20.9099 12.229 21.3038 13.1476 21.5107C13.7461 21.6454 14.3558 21.7009 14.9615 21.682C14.8202 22.4832 14.7585 23.3142 14.7545 24.1609L9.34857 27.2832L13.5202 29.6216C13.8536 29.8085 14.171 30.0227 14.4692 30.2619C17.9085 33.3498 19.9762 42.485 21.3972 46.9471C22.8184 42.485 24.886 33.3498 28.3254 30.2619C28.6235 30.0226 28.941 29.8085 29.2744 29.6216L33.446 27.2832L28.0399 24.1609C28.036 23.3142 27.9742 22.4832 27.8329 21.682C28.4386 21.7009 29.0483 21.6454 29.6468 21.5107C30.5655 21.3038 31.4431 20.9099 32.1844 20.3255C32.9479 19.7238 33.5404 18.9355 33.8647 18.0163C34.3684 16.5892 34.1542 15.0888 33.5081 13.7465L33.1754 13.0556L33.1753 13.0554Z" fill="#0C0405"/>
</g>
<defs>
<clipPath id="clip0_4021_7663">
<rect width="41.7063" height="49.6503" fill="white" transform="translate(0.543915 0.650879)"/>
</clipPath>
</defs>
</svg>
