<svg width="44" height="37" viewBox="0 0 44 37" fill="none" xmlns="http://www.w3.org/2000/svg">
<path d="M2.55948 16.0368C2.55948 16.0368 21.6253 8.15247 28.2195 5.42877C30.7998 4.42531 39.401 0.841507 39.401 0.841507C39.401 0.841507 43.4148 -0.735367 42.9848 2.99179C42.8414 4.56866 41.9813 9.87269 41.1212 15.7501C39.831 24.0646 38.3975 33.0957 38.3975 33.0957C38.3975 33.0957 38.1108 35.6761 36.2472 36.1061C34.3837 36.5362 31.2299 34.5293 30.7999 34.0992C30.3698 33.8125 22.4854 28.7952 19.6184 26.3582C18.9016 25.6414 17.8982 24.3513 19.7617 22.7744C23.7756 19.1906 28.5062 14.6033 31.3733 11.7363C32.6634 10.4461 33.9536 7.29235 28.5062 11.0195C20.6218 16.4669 13.0242 21.4842 13.0242 21.4842C13.0242 21.4842 11.304 22.631 8.00686 21.6276C4.70976 20.6241 0.839257 19.3339 0.839257 19.3339C0.839257 19.3339 -1.88443 17.7571 2.55948 16.0368Z" fill="#0C0405"/>
</svg>
